<svg width="1989" height="1989" viewBox="0 0 1989 1989" fill="none" xmlns="http://www.w3.org/2000/svg">
<path d="M1242.71 795.333L1321.25 624.336L1491.25 546.791L1321.25 469.246L1242.71 298.25L1167.15 469.246L994.166 546.791L1167.15 624.336L1242.71 795.333Z" fill="white"/>
<path d="M397.666 994.166L437.433 835.099L596.499 795.333L437.433 755.566L397.666 596.5L357.9 755.566L198.833 795.333L357.9 835.099L397.666 994.166Z" fill="white"/>
<path d="M1640.37 596.5C1534 596.5 1457.45 707.846 1506.16 809.251L1206.92 1108.49C1155.22 1083.64 1108.49 1094.58 1078.67 1108.49L978.259 1008.08C988.201 989.195 994.166 967.323 994.166 944.458C994.166 861.942 927.556 795.333 845.041 795.333C762.525 795.333 695.916 861.942 695.916 944.458C695.916 967.323 701.881 989.195 710.828 1008.08L411.584 1307.33C392.695 1298.38 370.824 1292.42 347.958 1292.42C265.442 1292.42 198.833 1359.02 198.833 1441.54C198.833 1524.06 265.442 1590.67 347.958 1590.67C430.474 1590.67 497.083 1524.06 497.083 1441.54C497.083 1418.67 491.118 1396.8 482.17 1377.91L781.414 1078.67C833.111 1103.52 879.836 1092.59 909.661 1078.67L1010.07 1179.08C1000.13 1197.97 994.166 1219.84 994.166 1242.71C994.166 1325.22 1060.77 1391.83 1143.29 1391.83C1225.81 1391.83 1292.42 1325.22 1292.42 1242.71C1292.42 1219.84 1286.45 1197.97 1277.5 1179.08L1576.75 879.837C1679.15 929.545 1789.5 851.006 1789.5 745.624C1789.5 663.109 1722.89 596.5 1640.37 596.5Z" fill="white"/>
</svg>